<mxfile host="app.diagrams.net" modified="2024-06-24T08:05:11.283Z" agent="Mozilla/5.0 (Macintosh; Intel Mac OS X 10.15; rv:127.0) Gecko/20100101 Firefox/127.0" version="24.2.1" etag="f8nNLZEzSmmCVYbBj9pm" type="github">
  <diagram name="Page-1" id="51rT6USRydXFHhYty8XR">
    <mxGraphModel>
      <root>
        <mxCell id="0" />
        <mxCell id="1" parent="0" />
      </root>
    </mxGraphModel>
  </diagram>
</mxfile>
